<svg version="1.0" xmlns="http://www.w3.org/2000/svg"
     width="1920.000000pt" height="1080.000000pt" viewBox="0 0 1920.000000 1080.000000"
     preserveAspectRatio="xMidYMid meet">

    <g transform="translate(0.000000,1080.000000) scale(0.100000,-0.100000)"
       fill="#000000" stroke="none">
        <path d="M2260 8061 c-74 -11 -208 -54 -271 -88 -80 -43 -190 -143 -228 -207
-44 -73 -96 -232 -112 -337 -18 -126 -7 -416 20 -499 11 -36 21 -71 21 -77 0
-7 19 -52 41 -100 117 -244 361 -366 739 -366 376 0 615 122 732 374 145 311
111 821 -70 1049 -100 126 -173 173 -353 225 -85 25 -113 28 -279 31 -102 1
-210 -1 -240 -5z m381 -292 c124 -41 203 -136 250 -304 19 -66 23 -106 23
-225 1 -273 -66 -442 -210 -526 -47 -27 -169 -54 -247 -54 -63 0 -203 33 -256
59 -48 25 -97 81 -123 140 -57 133 -84 401 -54 552 31 158 121 296 224 341 72
31 98 36 218 37 87 1 124 -3 175 -20z"/>
        <path d="M675 8020 c-185 -34 -258 -71 -361 -183 -131 -143 -194 -339 -194
-599 1 -290 63 -482 205 -624 109 -109 234 -167 402 -184 48 -5 235 -10 416
-10 l327 0 0 140 0 140 -340 0 c-207 0 -359 4 -390 11 -92 20 -177 107 -214
218 -56 172 -38 509 35 653 27 54 95 119 149 146 72 34 157 42 468 42 l292 0
0 135 0 135 -347 -1 c-291 -1 -364 -4 -448 -19z"/>
        <path d="M3532 7233 l3 -808 178 -3 177 -2 -5 377 c-3 208 -7 484 -10 613 -4
187 -3 232 7 222 13 -13 25 -34 183 -307 50 -86 97 -168 106 -183 9 -15 58
-99 109 -187 51 -88 100 -173 110 -190 34 -58 163 -280 180 -310 l17 -30 201
-3 202 -2 0 810 0 810 -174 0 -175 0 5 -127 c8 -260 13 -1033 6 -1033 -4 0
-42 60 -83 133 -42 72 -125 215 -184 317 -59 102 -149 256 -199 343 -50 87
-98 170 -107 185 -9 15 -27 47 -41 72 -14 25 -34 60 -44 77 l-19 33 -223 0
-222 0 2 -807z"/>
        <path d="M5805 8024 c-185 -29 -275 -73 -380 -186 -72 -78 -123 -172 -156
-283 -34 -120 -40 -165 -40 -340 0 -151 3 -182 27 -275 54 -212 146 -339 319
-435 129 -73 244 -87 685 -83 l325 3 0 135 0 135 -370 5 c-416 6 -403 3 -491
83 -66 60 -92 119 -100 231 l-7 86 484 2 484 3 0 135 0 135 -484 3 -484 2 7
73 c12 126 72 214 186 270 l65 32 355 5 355 5 3 138 3 137 -348 -1 c-244 -1
-375 -5 -438 -15z"/>
        <path d="M7365 8024 c-110 -17 -223 -55 -280 -94 -49 -34 -137 -127 -173 -184
-36 -57 -75 -159 -98 -251 -29 -122 -27 -425 4 -550 61 -245 213 -417 432
-487 91 -30 238 -39 575 -36 l320 3 0 135 0 135 -370 5 c-351 5 -372 6 -415
26 -62 30 -105 75 -141 151 -38 79 -50 161 -50 323 1 189 28 333 77 408 25 38
82 90 128 116 63 37 158 46 480 46 l296 0 0 135 0 135 -347 -1 c-244 -1 -375
-5 -438 -15z"/>
        <path d="M8247 8033 c-4 -3 -7 -66 -7 -140 l0 -133 268 -2 267 -3 3 -667 2
-668 175 0 175 0 0 670 0 670 270 0 270 0 0 140 0 140 -708 0 c-390 0 -712 -3
-715 -7z"/>
        <path d="M9850 7230 l0 -810 175 2 175 3 3 808 2 807 -177 0 -178 0 0 -810z"/>
        <path d="M9997 6154 c-96 -16 -197 -48 -257 -82 -45 -26 -157 -111 -175 -134
-57 -73 -100 -171 -131 -303 -27 -113 -27 -350 0 -455 59 -234 146 -353 321
-439 44 -22 123 -50 175 -63 84 -20 119 -23 295 -23 176 1 211 3 295 24 171
42 291 114 371 221 53 70 84 140 117 260 22 81 26 117 26 245 1 125 -3 165
-22 240 -43 168 -93 258 -195 350 -96 88 -197 130 -381 160 -110 18 -331 18
-439 -1z m371 -249 c189 -45 285 -193 299 -460 9 -175 -41 -350 -126 -438
-107 -113 -328 -143 -536 -72 -120 41 -172 120 -210 319 -61 320 53 590 275
650 72 19 219 20 298 1z"/>
        <path d="M13614 6143 l-172 -3 -102 -228 c-57 -125 -111 -238 -120 -252 -26
-37 -142 -289 -166 -358 -8 -23 -39 -93 -68 -155 -93 -194 -216 -459 -216
-463 0 -3 80 -3 177 -2 l178 3 70 174 70 174 350 -8 c193 -4 353 -10 357 -13
6 -6 26 -51 105 -237 48 -113 33 -105 201 -105 81 0 164 3 184 6 l37 6 -13 32
c-8 17 -45 96 -84 176 -38 80 -73 156 -77 170 -4 13 -45 99 -91 190 -45 91
-101 206 -124 255 -45 97 -73 155 -172 365 -36 74 -80 168 -98 208 -19 39 -39
71 -44 70 -6 -1 -88 -4 -182 -5z m129 -571 c64 -147 117 -271 117 -277 0 -9
-311 -10 -442 -2 l-37 2 43 100 c24 55 48 114 54 130 31 90 132 315 141 315 3
-1 59 -121 124 -268z"/>
        <path d="M7025 6133 c-136 -19 -282 -89 -370 -178 -148 -147 -209 -357 -185
-642 11 -133 39 -236 90 -331 38 -70 50 -85 120 -143 68 -56 109 -81 180 -109
112 -44 196 -50 663 -50 l437 0 0 430 0 430 -400 0 -400 0 0 -125 0 -125 230
0 230 0 -2 -172 -3 -173 -210 -3 c-115 -1 -241 2 -278 8 -73 11 -142 42 -181
81 -65 66 -106 213 -106 379 0 251 77 404 231 458 62 22 74 22 477 22 l412 0
0 125 0 125 -452 -1 c-249 -1 -466 -4 -483 -6z"/>
        <path d="M8220 5640 c0 -541 5 -601 55 -699 42 -84 129 -160 232 -207 98 -44
197 -54 526 -54 l297 0 0 114 0 113 -262 6 c-232 4 -271 7 -330 26 -81 26
-120 57 -156 125 l-27 51 -3 513 -3 512 -164 0 -165 0 0 -500z"/>
        <path d="M11270 5410 l0 -730 489 0 c277 0 523 4 568 10 133 18 241 66 308
138 65 69 92 289 48 384 -29 64 -90 127 -157 163 -31 17 -56 32 -56 35 0 3 27
22 60 43 147 94 194 219 155 409 -27 126 -68 175 -180 217 -151 57 -199 61
-737 61 l-498 0 0 -730z m901 470 c117 -22 164 -71 164 -170 0 -79 -26 -119
-96 -147 -51 -21 -68 -22 -341 -23 l-288 0 0 168 c0 93 3 172 7 175 10 11 495
8 554 -3z m50 -609 c54 -17 96 -59 109 -109 16 -64 3 -128 -34 -169 -50 -54
-105 -63 -418 -63 l-268 0 0 173 c0 96 3 177 7 181 13 12 563 1 604 -13z"/>
        <path d="M14585 5613 c3 -499 4 -532 23 -596 25 -81 53 -129 105 -180 90 -87
199 -139 328 -156 48 -7 189 -8 368 -4 l291 6 0 119 0 118 -262 0 -263 0 -78
31 c-97 39 -133 81 -159 183 -16 63 -18 123 -18 539 l0 467 -169 0 -169 0 3
-527z"/>
        <path d="M16475 5204 c-192 -18 -295 -65 -295 -134 0 -71 112 -113 386 -145
150 -17 200 -49 142 -89 -35 -25 -193 -22 -236 4 -18 11 -35 27 -38 35 -5 12
-31 15 -144 15 -78 0 -141 -4 -145 -10 -10 -17 64 -87 116 -110 125 -53 511
-53 640 1 74 30 119 74 119 114 0 79 -128 128 -402 155 -150 15 -200 40 -143
70 56 30 197 10 232 -32 9 -10 44 -12 147 -10 l136 3 -15 29 c-20 38 -75 70
-149 86 -64 13 -282 25 -351 18z"/>
        <path d="M18485 5201 c-116 -12 -192 -36 -232 -76 -39 -39 -42 -67 -8 -101 46
-46 147 -74 361 -99 149 -17 200 -49 142 -89 -16 -11 -47 -16 -106 -16 -91 0
-144 16 -162 49 -10 21 -17 21 -147 19 -92 -2 -138 -7 -140 -15 -7 -20 56 -80
108 -102 70 -31 214 -44 396 -38 127 5 164 10 224 31 161 56 187 159 55 216
-44 19 -228 53 -368 68 -96 10 -129 25 -105 49 39 39 164 37 223 -3 32 -22 44
-24 169 -24 74 0 135 2 135 5 0 3 -7 17 -16 31 -24 36 -89 70 -159 82 -83 16
-274 22 -370 13z"/>
        <path d="M17364 5098 c-44 -57 -108 -140 -144 -184 -36 -45 -80 -102 -98 -128
l-33 -46 148 0 149 0 19 33 c10 17 23 35 29 39 6 4 84 8 173 8 l163 0 26 -40
27 -40 148 0 c82 0 149 3 149 6 0 3 -28 42 -62 86 -35 44 -101 128 -146 186
-46 59 -97 124 -113 145 l-30 37 -163 0 -164 0 -78 -102z m299 -105 c25 -39
43 -74 40 -77 -9 -8 -203 -7 -203 1 0 16 104 163 110 156 4 -4 28 -40 53 -80z"/>
    </g>
</svg>

